<svg width="25" height="24" viewBox="0 0 25 24" fill="none" xmlns="http://www.w3.org/2000/svg">
<path d="M19.25 1.875H5.75C5.25348 1.87746 4.778 2.0758 4.4269 2.4269C4.0758 2.778 3.87746 3.25348 3.875 3.75V20.25C3.87746 20.7465 4.0758 21.222 4.4269 21.5731C4.778 21.9242 5.25348 22.1225 5.75 22.125H19.25C19.7465 22.1225 20.222 21.9242 20.5731 21.5731C20.9242 21.222 21.1225 20.7465 21.125 20.25V3.75C21.1225 3.25348 20.9242 2.778 20.5731 2.4269C20.222 2.0758 19.7465 1.87746 19.25 1.875ZM18.875 19.875H6.125V4.125H18.875V19.875ZM8 7.125C8 6.82663 8.11853 6.54048 8.3295 6.3295C8.54048 6.11853 8.82663 6 9.125 6H15.875C16.1734 6 16.4595 6.11853 16.6705 6.3295C16.8815 6.54048 17 6.82663 17 7.125C17 7.42337 16.8815 7.70952 16.6705 7.9205C16.4595 8.13147 16.1734 8.25 15.875 8.25H9.125C8.82663 8.25 8.54048 8.13147 8.3295 7.9205C8.11853 7.70952 8 7.42337 8 7.125ZM16.25 12C16.25 12.2967 16.162 12.5867 15.9972 12.8334C15.8324 13.08 15.5981 13.2723 15.324 13.3858C15.0499 13.4994 14.7483 13.5291 14.4574 13.4712C14.1664 13.4133 13.8991 13.2704 13.6893 13.0607C13.4796 12.8509 13.3367 12.5836 13.2788 12.2926C13.2209 12.0017 13.2506 11.7001 13.3642 11.426C13.4777 11.1519 13.67 10.9176 13.9166 10.7528C14.1633 10.588 14.4533 10.5 14.75 10.5C15.1478 10.5 15.5294 10.658 15.8107 10.9393C16.092 11.2206 16.25 11.6022 16.25 12ZM16.25 16.5C16.25 16.7967 16.162 17.0867 15.9972 17.3334C15.8324 17.58 15.5981 17.7723 15.324 17.8858C15.0499 17.9993 14.7483 18.0291 14.4574 17.9712C14.1664 17.9133 13.8991 17.7704 13.6893 17.5607C13.4796 17.3509 13.3367 17.0836 13.2788 16.7926C13.2209 16.5017 13.2506 16.2001 13.3642 15.926C13.4777 15.6519 13.67 15.4176 13.9166 15.2528C14.1633 15.088 14.4533 15 14.75 15C15.1478 15 15.5294 15.158 15.8107 15.4393C16.092 15.7206 16.25 16.1022 16.25 16.5ZM11.75 12C11.75 12.2967 11.662 12.5867 11.4972 12.8334C11.3324 13.08 11.0981 13.2723 10.824 13.3858C10.5499 13.4994 10.2483 13.5291 9.95736 13.4712C9.66639 13.4133 9.39912 13.2704 9.18934 13.0607C8.97956 12.8509 8.8367 12.5836 8.77882 12.2926C8.72094 12.0017 8.75065 11.7001 8.86418 11.426C8.97771 11.1519 9.16997 10.9176 9.41665 10.7528C9.66332 10.588 9.95333 10.5 10.25 10.5C10.6478 10.5 11.0294 10.658 11.3107 10.9393C11.592 11.2206 11.75 11.6022 11.75 12ZM11.75 16.5C11.75 16.7967 11.662 17.0867 11.4972 17.3334C11.3324 17.58 11.0981 17.7723 10.824 17.8858C10.5499 17.9993 10.2483 18.0291 9.95736 17.9712C9.66639 17.9133 9.39912 17.7704 9.18934 17.5607C8.97956 17.3509 8.8367 17.0836 8.77882 16.7926C8.72094 16.5017 8.75065 16.2001 8.86418 15.926C8.97771 15.6519 9.16997 15.4176 9.41665 15.2528C9.66332 15.088 9.95333 15 10.25 15C10.6478 15 11.0294 15.158 11.3107 15.4393C11.592 15.7206 11.75 16.1022 11.75 16.5Z" fill="#20344B"/>
</svg>
