<svg width="25" height="24" viewBox="0 0 25 24" fill="none" xmlns="http://www.w3.org/2000/svg">
<path d="M4.79289 4.29289C4.98043 4.10536 5.23478 4 5.5 4H16.5C17.0523 4 17.5 3.55228 17.5 3C17.5 2.44772 17.0523 2 16.5 2H5.5C4.70435 2 3.94129 2.31607 3.37868 2.87868C2.81607 3.44129 2.5 4.20435 2.5 5V19C2.5 19.7957 2.81607 20.5587 3.37868 21.1213C3.94129 21.6839 4.70435 22 5.5 22H19.5C20.2957 22 21.0587 21.6839 21.6213 21.1213C22.1839 20.5587 22.5 19.7957 22.5 19V12C22.5 11.4477 22.0523 11 21.5 11C20.9477 11 20.5 11.4477 20.5 12V19C20.5 19.2652 20.3946 19.5196 20.2071 19.7071C20.0196 19.8946 19.7652 20 19.5 20H5.5C5.23478 20 4.98043 19.8946 4.79289 19.7071C4.60536 19.5196 4.5 19.2652 4.5 19V5C4.5 4.73478 4.60536 4.48043 4.79289 4.29289Z" fill="#20344B"/>
<path d="M13.2071 14.7071L23.2071 4.70711C23.5976 4.31658 23.5976 3.68342 23.2071 3.29289C22.8166 2.90237 22.1834 2.90237 21.7929 3.29289L12.5 12.5858L10.2071 10.2929C9.81658 9.90237 9.18342 9.90237 8.79289 10.2929C8.40237 10.6834 8.40237 11.3166 8.79289 11.7071L11.7929 14.7071C12.1834 15.0976 12.8166 15.0976 13.2071 14.7071Z" fill="#20344B"/>
</svg>
