<svg width="24" height="24" viewBox="0 0 24 24" fill="none" xmlns="http://www.w3.org/2000/svg">
<path d="M0.872728 2C0.390982 2 0 2.39098 0 2.87273C0 3.35447 0.390982 3.74546 0.872728 3.74546H4.05682L5.88324 15.0713C6.08921 16.3468 7.17611 17.2727 8.46819 17.2727H20.5091C20.9909 17.2727 21.3818 16.8818 21.3818 16.4C21.3818 15.9183 20.9909 15.5273 20.5091 15.5273H8.46819C8.03793 15.5273 7.6759 15.2185 7.60739 14.7935L7.44375 13.7818H20.3395C21.625 13.7818 22.7111 12.8617 22.9219 11.594L23.9881 5.19773C24.0304 4.94464 23.9587 4.68627 23.7929 4.49034C23.6271 4.29485 23.3839 4.18182 23.1273 4.18182H5.89517L5.66165 2.73381C5.59314 2.31053 5.22808 2 4.8 2H0.872728ZM6.17728 5.92728H22.0969L21.2003 11.3068C21.13 11.7292 20.7676 12.0364 20.3395 12.0364H7.1625L6.17728 5.92728ZM9.16364 19.0182C8.19971 19.0182 7.41819 19.7997 7.41819 20.7636C7.41819 21.7276 8.19971 22.5091 9.16364 22.5091C10.1276 22.5091 10.9091 21.7276 10.9091 20.7636C10.9091 19.7997 10.1276 19.0182 9.16364 19.0182ZM18.7636 19.0182C17.7997 19.0182 17.0182 19.7997 17.0182 20.7636C17.0182 21.7276 17.7997 22.5091 18.7636 22.5091C19.7276 22.5091 20.5091 21.7276 20.5091 20.7636C20.5091 19.7997 19.7276 19.0182 18.7636 19.0182Z" fill="white"/>
</svg>
