<svg width="87" height="11" viewBox="0 0 87 11" fill="none" xmlns="http://www.w3.org/2000/svg">
<g clip-path="url(#clip0_979_6928)">
<path d="M83.2635 4.57109C83.5413 4.55979 83.8177 4.61471 84.0693 4.73119C84.321 4.84768 84.5405 5.02231 84.7093 5.24028C85.067 5.73179 85.2472 6.32759 85.221 6.9322C85.244 7.54032 85.0542 8.13771 84.6837 8.62412C84.3669 9.00064 83.9122 9.23841 83.4185 9.28571C82.9249 9.333 82.4324 9.18598 82.0481 8.87665C81.9565 8.79891 81.871 8.71449 81.7922 8.62412C81.427 8.13505 81.2378 7.53953 81.2549 6.9322C81.2319 6.32409 81.4217 5.72669 81.7922 5.24028C81.9662 5.02165 82.1903 4.84695 82.4461 4.7306C82.7019 4.61425 82.9821 4.55958 83.2635 4.57109ZM82.8669 10.9852C83.6917 10.9962 84.4939 10.7189 85.1315 10.2024V10.6822C85.1278 10.6997 85.1279 10.7179 85.1319 10.7353C85.1358 10.7528 85.1435 10.7693 85.1544 10.7836C85.1653 10.7979 85.1791 10.8098 85.195 10.8185C85.2109 10.8271 85.2285 10.8323 85.2466 10.8337H86.8459C86.8637 10.8374 86.882 10.8372 86.8997 10.8333C86.9174 10.8294 86.9341 10.8218 86.9486 10.8111C86.9632 10.8004 86.9752 10.7867 86.984 10.771C86.9927 10.7553 86.998 10.7379 86.9994 10.7201V0.1519C87.0024 0.131314 87.0005 0.110323 86.9939 0.0905912C86.9872 0.0708591 86.976 0.0529292 86.9611 0.0382238C86.9462 0.0235184 86.928 0.0124423 86.908 0.00587402C86.888 -0.000694225 86.8667 -0.00257381 86.8459 0.000384373H85.285C85.2478 -0.00244706 85.2109 0.00916231 85.1823 0.0327427C85.1536 0.0563232 85.1354 0.0900136 85.1315 0.126647V3.68725C84.489 3.17943 83.6901 2.90326 82.8669 2.90442C82.3817 2.88671 81.8986 2.97483 81.4518 3.16253C81.0051 3.35022 80.6059 3.63285 80.2825 3.99028C79.63 4.70998 79.3102 5.69483 79.3102 6.94483C79.3102 8.19483 79.63 9.16705 80.2825 9.89938C80.6059 10.2568 81.0051 10.5394 81.4518 10.7271C81.8986 10.9148 82.3817 11.003 82.8669 10.9852V10.9852ZM66.1066 4.57109C66.3844 4.55979 66.6608 4.61471 66.9124 4.73119C67.1641 4.84768 67.3836 5.02231 67.5524 5.24028C67.9176 5.72936 68.1067 6.32488 68.0897 6.9322C68.1149 7.54061 67.9249 8.13873 67.5524 8.62412C67.2355 9.00064 66.7808 9.23841 66.2872 9.28571C65.7936 9.333 65.3011 9.18598 64.9168 8.87665C64.8252 8.79891 64.7397 8.71449 64.6609 8.62412C64.2938 8.13662 64.1085 7.53897 64.1363 6.9322C64.1112 6.32379 64.3011 5.72568 64.6737 5.24028C64.8424 5.02231 65.062 4.84768 65.3136 4.73119C65.5653 4.61471 65.8417 4.55979 66.1194 4.57109H66.1066ZM65.7484 10.9852C66.5732 10.9962 67.3753 10.7189 68.0129 10.2024V10.6822C68.0093 10.6997 68.0094 10.7179 68.0134 10.7353C68.0173 10.7528 68.025 10.7693 68.0359 10.7836C68.0468 10.7979 68.0606 10.8098 68.0765 10.8185C68.0924 10.8271 68.11 10.8323 68.1281 10.8337H69.7402C69.7579 10.8374 69.7763 10.8372 69.794 10.8333C69.8117 10.8294 69.8284 10.8218 69.8429 10.8111C69.8574 10.8004 69.8695 10.7867 69.8782 10.771C69.887 10.7553 69.8922 10.7379 69.8937 10.7201V3.22008C69.8967 3.1995 69.8948 3.17851 69.8881 3.15877C69.8815 3.13904 69.8702 3.12111 69.8553 3.10641C69.8404 3.0917 69.8223 3.08062 69.8023 3.07406C69.7823 3.06749 69.761 3.06561 69.7402 3.06857H68.1665C68.1293 3.06573 68.0924 3.07734 68.0637 3.10092C68.0351 3.12451 68.0168 3.1582 68.0129 3.19483V3.68725C67.3673 3.17765 66.5623 2.90538 65.7356 2.91705C65.2504 2.89933 64.7672 2.98746 64.3205 3.17515C63.8738 3.36285 63.4745 3.64548 63.1512 4.00291C62.4987 4.72261 62.1788 5.70746 62.1788 6.95746C62.1788 8.20746 62.4987 9.17968 63.1512 9.912C63.4745 10.2694 63.8738 10.5521 64.3205 10.7398C64.7672 10.9275 65.2504 11.0156 65.7356 10.9979L65.7484 10.9852ZM0.152955 10.8463H1.8034C1.8356 10.8541 1.86961 10.8492 1.89825 10.8328C1.92689 10.8163 1.94793 10.7895 1.95693 10.758V6.28826H6.40928C6.44649 6.2911 6.48336 6.27949 6.51203 6.25591C6.5407 6.23232 6.55892 6.19863 6.56281 6.162V4.64685C6.56581 4.62626 6.5639 4.60527 6.55725 4.58554C6.55059 4.56581 6.53937 4.54788 6.52447 4.53317C6.50956 4.51847 6.4914 4.50739 6.4714 4.50082C6.45141 4.49426 6.43014 4.49238 6.40928 4.49533H1.96972V1.81857H6.60119C6.61981 1.82104 6.63875 1.81966 6.65681 1.81453C6.67486 1.80939 6.69164 1.80061 6.70608 1.78874C6.72051 1.77687 6.73229 1.76216 6.74066 1.74556C6.74904 1.72896 6.75382 1.71083 6.75472 1.6923V0.177152C6.75593 0.158 6.75321 0.138804 6.74673 0.120713C6.74025 0.102621 6.73014 0.0860055 6.717 0.0718603C6.70386 0.057715 6.68797 0.0463307 6.67027 0.0383884C6.65256 0.0304461 6.63342 0.0261091 6.61398 0.0256369H0.152955C0.11567 0.0224739 0.0786261 0.0339628 0.0498769 0.0576061C0.0211278 0.0812494 0.00299699 0.115136 -0.0005741 0.1519V10.6948C-0.0035716 10.7154 -0.00166703 10.7364 0.00498854 10.7561C0.0116441 10.7759 0.0228675 10.7938 0.0377684 10.8085C0.0526692 10.8232 0.0708375 10.8343 0.0908319 10.8409C0.110826 10.8474 0.132097 10.8493 0.152955 10.8463V10.8463ZM16.2607 4.73523H17.6041V8.38422C17.58 8.73884 17.6326 9.09446 17.7583 9.42751C17.884 9.76056 18.0801 10.0634 18.3334 10.316C18.5903 10.5468 18.8911 10.7248 19.2184 10.8397C19.5457 10.9545 19.8929 11.004 20.2397 10.9852C20.8508 11.0139 21.4621 10.9326 22.0437 10.7453C22.1332 10.7201 22.1716 10.6317 22.1716 10.4802V9.20493C22.1716 9.11655 22.1332 9.06604 22.0693 9.06604H21.9669C21.5223 9.21702 21.0553 9.29383 20.5852 9.29331C20.4302 9.30622 20.2744 9.28327 20.13 9.22628C19.9856 9.16929 19.8567 9.07983 19.7535 8.96503C19.5615 8.68258 19.4714 8.34458 19.4977 8.00544V4.73523H21.8646C21.8854 4.73819 21.9067 4.73631 21.9267 4.72974C21.9467 4.72318 21.9649 4.7121 21.9798 4.69739C21.9947 4.68269 22.0059 4.66476 22.0125 4.64503C22.0192 4.62529 22.0211 4.6043 22.0181 4.58372V3.22008C22.0189 3.18384 22.0064 3.14855 21.9828 3.12071C21.9593 3.09286 21.9264 3.07435 21.8902 3.06857H19.4977V0.833718C19.5055 0.801933 19.5006 0.768371 19.4839 0.740107C19.4672 0.711842 19.44 0.691083 19.4081 0.682203H17.7705C17.7496 0.679244 17.7283 0.681124 17.7083 0.687692C17.6883 0.69426 17.6702 0.705337 17.6553 0.720042C17.6404 0.734747 17.6291 0.752677 17.6225 0.772409C17.6158 0.792141 17.6139 0.813133 17.6169 0.833718V3.06857H16.2735C16.2558 3.06493 16.2374 3.06506 16.2197 3.06896C16.202 3.07286 16.1853 3.08044 16.1708 3.09119C16.1563 3.10193 16.1442 3.11561 16.1355 3.1313C16.1267 3.14699 16.1214 3.16435 16.12 3.1822V4.58372C16.1163 4.60126 16.1165 4.61937 16.1204 4.63686C16.1244 4.65434 16.132 4.67079 16.1429 4.68512C16.1538 4.69946 16.1677 4.71134 16.1836 4.71997C16.1995 4.72861 16.2171 4.73382 16.2352 4.73523H16.2607V4.73523ZM40.6335 4.96251C40.9904 4.708 41.4216 4.57504 41.8618 4.58372C42.9237 4.58372 43.6146 5.05089 43.9216 5.99786H39.8403C39.9901 5.58022 40.2672 5.21857 40.6335 4.96251V4.96251ZM38.9703 9.84887C39.3469 10.2204 39.7966 10.5118 40.2917 10.705C40.7868 10.8983 41.3168 10.9894 41.849 10.9726C43.7553 10.9726 45.0347 10.1393 45.6872 8.47261C45.702 8.42332 45.7106 8.37244 45.7128 8.32109C45.7159 8.30935 45.7162 8.29708 45.7139 8.28518C45.7115 8.27328 45.7064 8.26207 45.699 8.25237C45.6917 8.24267 45.6822 8.23473 45.6713 8.22914C45.6604 8.22355 45.6483 8.22045 45.636 8.22008H44.0112C43.9652 8.21987 43.9201 8.23289 43.8815 8.25755C43.8428 8.28222 43.8123 8.31746 43.7937 8.35897C43.4099 9.00291 42.7702 9.31857 41.8618 9.31857C41.3526 9.33546 40.8554 9.16438 40.4672 8.83877C40.0934 8.50253 39.8531 8.04601 39.7891 7.55089H45.7512C45.79 7.5546 45.8287 7.54362 45.8596 7.52018C45.8905 7.49673 45.9112 7.46257 45.9175 7.42463V7.10897C45.9482 6.01374 45.5547 4.94816 44.8172 4.12917C44.4452 3.72939 43.9889 3.41485 43.4806 3.20763C42.9722 3.00041 42.424 2.90553 41.8746 2.92968C41.3523 2.91829 40.8329 3.00911 40.3464 3.19689C39.8598 3.38467 39.4158 3.66569 39.0399 4.02373C38.664 4.38178 38.3637 4.80974 38.1563 5.28294C37.949 5.75613 37.8386 6.26518 37.8316 6.78069V6.95746C37.8155 7.4901 37.908 8.02051 38.1036 8.5172C38.2993 9.01389 38.594 9.46674 38.9703 9.84887ZM49.0009 1.81857H51.4062C51.7405 1.80439 52.0685 1.91227 52.3274 2.1216C52.4531 2.23637 52.5506 2.37787 52.6127 2.53538C52.6748 2.69288 52.6997 2.86226 52.6856 3.03069C52.6987 3.20091 52.6733 3.37187 52.6114 3.53126C52.5494 3.69064 52.4524 3.83448 52.3274 3.9524C52.2024 4.06224 52.0567 4.14666 51.8986 4.20083C51.7406 4.25499 51.5732 4.27784 51.4062 4.26806H49.0009V1.81857ZM49.0009 6.04836H51.5725C51.9829 6.03355 52.3827 6.17868 52.6856 6.45241C52.8297 6.59429 52.9426 6.7639 53.0175 6.95071C53.0923 7.13751 53.1274 7.33751 53.1206 7.53826C53.1346 7.74357 53.1029 7.94942 53.0278 8.14137C52.9526 8.33331 52.8358 8.5067 52.6856 8.64938C52.3814 8.91959 51.9813 9.06027 51.5725 9.04079H49.0009V6.04836ZM47.1841 10.8463H51.7516C52.1982 10.8666 52.6443 10.7963 53.0624 10.64C53.4804 10.4837 53.8616 10.2445 54.1825 9.93725C54.4865 9.63628 54.725 9.27721 54.8834 8.88207C55.0418 8.48692 55.1167 8.06402 55.1037 7.63927C55.1037 6.3514 54.5791 5.48018 53.5172 5.02564C53.8636 4.78219 54.1455 4.46009 54.3393 4.0865C54.533 3.71292 54.6328 3.29883 54.6303 2.87917C54.6481 2.48434 54.573 2.09079 54.411 1.72936C54.249 1.36792 54.0044 1.04841 53.6963 0.795839C53.0481 0.264275 52.2226 -0.0102667 51.3806 0.0256369H47.1841C47.1655 0.0231666 47.1466 0.0245425 47.1285 0.0296772C47.1105 0.0348119 47.0937 0.0435935 47.0792 0.0554649C47.0648 0.0673364 47.053 0.0820387 47.0447 0.0986394C47.0363 0.11524 47.0315 0.133377 47.0306 0.1519V10.6948C47.0276 10.7154 47.0295 10.7364 47.0362 10.7561C47.0428 10.7759 47.054 10.7938 47.0689 10.8085C47.0838 10.8232 47.102 10.8343 47.122 10.8409C47.142 10.8474 47.1633 10.8493 47.1841 10.8463V10.8463ZM56.2679 10.8463H57.8416C57.8625 10.8493 57.8838 10.8474 57.9037 10.8409C57.9237 10.8343 57.9419 10.8232 57.9568 10.8085C57.9717 10.7938 57.9829 10.7759 57.9896 10.7561C57.9962 10.7364 57.9981 10.7154 57.9952 10.6948V6.67968C57.9952 5.9221 58.1487 5.3918 58.4429 5.07614C58.6053 4.9134 58.8014 4.78734 59.0179 4.70669C59.2344 4.62603 59.466 4.59269 59.6968 4.60897C60.2643 4.62884 60.8199 4.77563 61.3216 5.03826C61.354 5.05257 61.3886 5.06112 61.424 5.06352C61.5135 5.06352 61.5519 5.01301 61.5519 4.89937V3.44735C61.5557 3.38659 61.539 3.3263 61.5042 3.276C61.4695 3.2257 61.4187 3.18826 61.36 3.16958C60.9007 3.00431 60.4159 2.91887 59.9271 2.91705C59.2114 2.90579 58.5191 3.16822 57.9952 3.64937V3.24533C57.9959 3.2091 57.9834 3.1738 57.9599 3.14596C57.9364 3.11812 57.9035 3.0996 57.8672 3.09382H56.2935C56.2727 3.09086 56.2514 3.09274 56.2314 3.09931C56.2114 3.10588 56.1933 3.11695 56.1784 3.13166C56.1634 3.14636 56.1522 3.16429 56.1456 3.18403C56.1389 3.20376 56.137 3.22475 56.14 3.24533V10.7075C56.137 10.728 56.1389 10.749 56.1456 10.7688C56.1522 10.7885 56.1634 10.8064 56.1784 10.8211C56.1933 10.8358 56.2114 10.8469 56.2314 10.8535C56.2514 10.86 56.2727 10.8619 56.2935 10.859L56.2679 10.8463ZM24.1931 10.2782C24.4638 10.5215 24.7807 10.7092 25.1255 10.8306C25.4704 10.952 25.8362 11.0046 26.2018 10.9852C27.069 10.9855 27.9081 10.6812 28.5687 10.1266V10.6696C28.5679 10.7058 28.5804 10.7411 28.6039 10.769C28.6275 10.7968 28.6604 10.8153 28.6966 10.8211H30.2959C30.3137 10.8247 30.332 10.8246 30.3497 10.8207C30.3675 10.8168 30.3841 10.8092 30.3986 10.7985C30.4132 10.7877 30.4252 10.7741 30.434 10.7584C30.4427 10.7427 30.448 10.7253 30.4494 10.7075V3.22008C30.4573 3.1883 30.4524 3.15473 30.4357 3.12647C30.4189 3.09821 30.3918 3.07745 30.3599 3.06857H28.735C28.7142 3.06561 28.6929 3.06749 28.6729 3.07406C28.6529 3.08062 28.6347 3.0917 28.6198 3.10641C28.6049 3.12111 28.5937 3.13904 28.587 3.15877C28.5804 3.17851 28.5785 3.1995 28.5815 3.22008V6.73018C28.5815 7.58877 28.4024 8.23271 28.0569 8.662C27.8989 8.86474 27.6953 9.02845 27.4621 9.1402C27.229 9.25195 26.9727 9.30869 26.7135 9.30594C25.818 9.30594 25.3702 8.77564 25.3702 7.70241V3.22008C25.3709 3.18384 25.3584 3.14855 25.3349 3.12071C25.3114 3.09286 25.2785 3.07435 25.2422 3.06857H23.6557C23.6235 3.06079 23.5895 3.06566 23.5609 3.08215C23.5323 3.09864 23.5112 3.12546 23.5022 3.15695V8.35897C23.4722 8.70897 23.5184 9.06126 23.6375 9.39225C23.7567 9.72323 23.9461 10.0253 24.1931 10.2782V10.2782ZM31.844 10.8463H33.4049C33.4257 10.8493 33.447 10.8474 33.467 10.8409C33.487 10.8343 33.5051 10.8232 33.52 10.8085C33.5349 10.7938 33.5462 10.7759 33.5528 10.7561C33.5595 10.7364 33.5614 10.7154 33.5584 10.6948V6.67968C33.5584 5.9221 33.7119 5.3918 34.0062 5.07614C34.1685 4.9134 34.3646 4.78734 34.5811 4.70669C34.7976 4.62603 35.0292 4.59269 35.26 4.60897C35.8276 4.62884 36.3832 4.77563 36.8849 5.03826C36.9172 5.05257 36.9519 5.06112 36.9872 5.06352C37.0768 5.06352 37.1152 5.01301 37.1152 4.89937V3.44735C37.119 3.38659 37.1022 3.3263 37.0674 3.276C37.0327 3.2257 36.982 3.18826 36.9232 3.16958C36.464 3.00431 35.9791 2.91887 35.4903 2.91705C34.7747 2.90579 34.0824 3.16822 33.5584 3.64937V3.24533C33.5592 3.2091 33.5466 3.1738 33.5231 3.14596C33.4996 3.11812 33.4667 3.0996 33.4304 3.09382H31.8312C31.8103 3.09086 31.7891 3.09274 31.7691 3.09931C31.7491 3.10588 31.7309 3.11695 31.716 3.13166C31.7011 3.14636 31.6899 3.16429 31.6832 3.18403C31.6766 3.20376 31.6747 3.22475 31.6777 3.24533V10.7075C31.6777 10.7958 31.7288 10.8463 31.844 10.8463V10.8463ZM8.80178 10.2782C9.07244 10.5215 9.38939 10.7092 9.73422 10.8306C10.079 10.952 10.4449 11.0046 10.8105 10.9852C11.6781 10.9877 12.5179 10.6831 13.1774 10.1266V10.6696C13.1766 10.7058 13.1891 10.7411 13.2126 10.769C13.2361 10.7968 13.269 10.8153 13.3053 10.8211H14.9046C14.9223 10.8247 14.9407 10.8246 14.9584 10.8207C14.9761 10.8168 14.9928 10.8092 15.0073 10.7985C15.0218 10.7877 15.0339 10.7741 15.0426 10.7584C15.0514 10.7427 15.0567 10.7253 15.0581 10.7075V3.22008C15.066 3.1883 15.061 3.15473 15.0443 3.12647C15.0276 3.09821 15.0005 3.07745 14.9685 3.06857H13.3437C13.3228 3.06561 13.3016 3.06749 13.2816 3.07406C13.2616 3.08062 13.2434 3.0917 13.2285 3.10641C13.2136 3.12111 13.2024 3.13904 13.1957 3.15877C13.1891 3.17851 13.1872 3.1995 13.1902 3.22008V6.73018C13.1902 7.58877 13.011 8.23271 12.6528 8.662C12.4948 8.86474 12.2911 9.02845 12.058 9.1402C11.8249 9.25195 11.5686 9.30869 11.3094 9.30594C10.4138 9.30594 9.96604 8.77564 9.96604 7.70241V3.22008C9.96682 3.18384 9.9543 3.14855 9.93079 3.12071C9.90728 3.09286 9.87436 3.07435 9.8381 3.06857H8.22604C8.20922 3.0649 8.19181 3.06462 8.17487 3.06776C8.15794 3.07089 8.14182 3.07737 8.12748 3.0868C8.11314 3.09623 8.10088 3.10843 8.09144 3.12265C8.08199 3.13688 8.07555 3.15284 8.07251 3.16958V8.35897C8.05549 8.71099 8.11138 9.06274 8.23677 9.39272C8.36216 9.72271 8.55441 10.024 8.80178 10.2782V10.2782ZM71.3138 10.8463H72.8747C72.8956 10.8493 72.9168 10.8474 72.9368 10.8409C72.9568 10.8343 72.975 10.8232 72.9899 10.8085C73.0048 10.7938 73.016 10.7759 73.0227 10.7561C73.0293 10.7364 73.0312 10.7154 73.0282 10.6948V7.1721C73.0282 6.31352 73.2074 5.66958 73.5656 5.24028C73.7256 5.03969 73.9296 4.87752 74.1623 4.76599C74.395 4.65445 74.6503 4.59645 74.909 4.59634C75.8046 4.59634 76.2524 5.12665 76.2524 6.19988V10.6948C76.2487 10.7124 76.2488 10.7305 76.2528 10.748C76.2567 10.7655 76.2644 10.7819 76.2753 10.7962C76.2862 10.8106 76.3 10.8224 76.3159 10.8311C76.3318 10.8397 76.3494 10.8449 76.3675 10.8463H77.9668C77.9876 10.8493 78.0089 10.8474 78.0289 10.8409C78.0489 10.8343 78.0671 10.8232 78.082 10.8085C78.0969 10.7938 78.1081 10.7759 78.1147 10.7561C78.1214 10.7364 78.1233 10.7154 78.1203 10.6948V5.56857C78.1385 5.21452 78.0832 4.86054 77.9578 4.52835C77.8324 4.19616 77.6395 3.89275 77.391 3.63675C77.121 3.39173 76.8045 3.20197 76.4597 3.07843C76.1149 2.9549 75.7488 2.90005 75.3824 2.91705C74.5151 2.91677 73.6761 3.22113 73.0155 3.77564V3.23271C73.0162 3.19647 73.0037 3.16118 72.9802 3.13333C72.9567 3.10549 72.9238 3.08697 72.8875 3.08119H71.301C71.2802 3.07823 71.2589 3.08011 71.2389 3.08668C71.2189 3.09325 71.2007 3.10433 71.1858 3.11903C71.1709 3.13374 71.1597 3.15167 71.1531 3.1714C71.1464 3.19113 71.1445 3.21212 71.1475 3.23271V10.6948C71.147 10.7159 71.1511 10.7369 71.1595 10.7564C71.1679 10.7758 71.1803 10.7933 71.196 10.8076C71.2118 10.8219 71.2304 10.8328 71.2507 10.8395C71.271 10.8462 71.2925 10.8485 71.3138 10.8463" fill="white"/>
</g>
<defs>
<clipPath id="clip0_979_6928">
<rect width="87" height="11" fill="white"/>
</clipPath>
</defs>
</svg>