<svg width="24" height="24" viewBox="0 0 24 24" fill="none" xmlns="http://www.w3.org/2000/svg">
<path d="M9.66573 1C9.40684 1 9.15711 1.09583 8.96467 1.26902C8.52448 1.70922 7.92744 1.95652 7.3049 1.95652H2.95652C2.42825 1.95652 2 2.38477 2 2.91304V3.3913C2 3.65544 2.21412 3.86957 2.47826 3.86957C2.7424 3.86957 2.95652 4.08369 2.95652 4.34783V20.1304C2.95652 21.7035 4.25306 23 5.82609 23H17.3043C18.8774 23 20.1739 21.7035 20.1739 20.1304V4.34783C20.1739 4.08369 20.388 3.86957 20.6522 3.86957C20.9163 3.86957 21.1304 3.65544 21.1304 3.3913V2.91304C21.1304 2.38477 20.7022 1.95652 20.1739 1.95652H15.8255C15.203 1.95652 14.606 1.70922 14.1658 1.26902C13.9733 1.09583 13.7236 1 13.4647 1H9.66573ZM9.38315 3.60054C9.82335 3.16034 10.4204 2.91304 11.0429 2.91304H12.0875C12.71 2.91304 13.3071 3.16034 13.7473 3.60054C13.9397 3.77373 14.1894 3.86957 14.4483 3.86957H15.215C16.8972 3.86957 18.2609 5.23325 18.2609 6.91543V20.1304C18.2609 20.661 17.8349 21.087 17.3043 21.087H5.82609C5.29552 21.087 4.86957 20.661 4.86957 20.1304V6.91543C4.86957 5.23325 6.23325 3.86957 7.91543 3.86957H8.68209C8.94099 3.86957 9.19072 3.77373 9.38315 3.60054ZM7.73913 6.73913C7.21086 6.73913 6.78261 7.16738 6.78261 7.69565V16.3043C6.78261 16.8326 7.21086 17.2609 7.73913 17.2609C8.2674 17.2609 8.69565 16.8326 8.69565 16.3043V7.69565C8.69565 7.16738 8.2674 6.73913 7.73913 6.73913ZM11.5652 6.73913C11.0369 6.73913 10.6087 7.16738 10.6087 7.69565V16.3043C10.6087 16.8326 11.0369 17.2609 11.5652 17.2609C12.0935 17.2609 12.5217 16.8326 12.5217 16.3043V7.69565C12.5217 7.16738 12.0935 6.73913 11.5652 6.73913ZM15.3913 6.73913C14.863 6.73913 14.4348 7.16738 14.4348 7.69565V16.3043C14.4348 16.8326 14.863 17.2609 15.3913 17.2609C15.9196 17.2609 16.3478 16.8326 16.3478 16.3043V7.69565C16.3478 7.16738 15.9196 6.73913 15.3913 6.73913Z" fill="#3F6B9E"/>
</svg>
