<?xml version="1.0" standalone="no"?>
<!DOCTYPE svg PUBLIC "-//W3C//DTD SVG 20010904//EN"
 "http://www.w3.org/TR/2001/REC-SVG-20010904/DTD/svg10.dtd">
<svg version="1.0" xmlns="http://www.w3.org/2000/svg"
 width="700.000000pt" height="700.000000pt" viewBox="0 0 700.000000 700.000000"
 preserveAspectRatio="xMidYMid meet">
<metadata>
Created by potrace 1.14, written by Peter Selinger 2001-2017
</metadata>
<g transform="translate(0.000000,700.000000) scale(0.100000,-0.100000)"
fill="#000000" stroke="none">
<path d="M0 3339 l0 -2349 515 0 515 0 0 1819 c0 1235 3 1827 10 1847 15 42
55 67 106 68 56 0 88 -31 132 -129 54 -123 442 -988 464 -1035 11 -25 47 -103
78 -175 32 -71 70 -157 85 -190 51 -113 77 -170 90 -200 7 -16 27 -59 43 -95
28 -60 98 -216 269 -600 107 -240 157 -320 283 -454 186 -195 418 -321 686
-371 94 -18 294 -26 359 -14 22 4 58 10 80 13 312 43 643 258 827 536 65 99
86 143 281 580 80 179 159 357 177 395 18 39 108 239 200 445 92 206 182 407
200 445 18 39 50 111 72 160 22 50 48 108 58 130 10 22 59 132 110 244 129
289 127 284 158 302 57 32 140 4 162 -55 7 -20 10 -612 10 -1847 l0 -1819 515
0 515 0 0 2349 0 2348 -260 0 c-185 0 -257 -3 -253 -11 4 -7 1 -7 -8 1 -10 8
-159 11 -579 8 -311 -1 -572 -5 -580 -7 -8 -3 -35 -10 -60 -17 -82 -24 -167
-73 -248 -146 -55 -49 -116 -151 -187 -315 -37 -85 -76 -173 -85 -195 -10 -22
-37 -83 -60 -135 -23 -52 -50 -113 -60 -135 -10 -22 -34 -78 -55 -125 -35 -81
-45 -104 -85 -195 -10 -22 -33 -74 -50 -115 -18 -41 -43 -97 -55 -125 -32 -69
-231 -523 -271 -616 -18 -42 -43 -101 -57 -130 -13 -30 -55 -124 -92 -209 -37
-85 -75 -173 -85 -195 -11 -22 -61 -137 -113 -255 -175 -400 -189 -429 -203
-441 -8 -6 -30 -13 -48 -16 -51 -5 -78 30 -151 197 -35 80 -154 352 -265 605
-212 481 -350 798 -405 925 -18 41 -44 100 -58 130 -14 30 -71 161 -127 290
-56 129 -111 255 -122 279 -16 36 -176 400 -224 511 -88 202 -177 304 -331
377 -125 60 -143 61 -1025 61 l-798 -1 0 -2348z"/>
</g>
</svg>
